<svg width="900" height="300" viewBox="0 0 900 300" fill="none" xmlns="http://www.w3.org/2000/svg">
  <defs>
    <linearGradient id="bg" x1="0" y1="0" x2="1" y2="1">
      <stop offset="0" stop-color="#EAF1FF"/>
      <stop offset="1" stop-color="#F9FBFF"/>
    </linearGradient>
    <linearGradient id="roof" x1="0" y1="0" x2="1" y2="1">
      <stop offset="0" stop-color="#E5B64F"/>
      <stop offset="1" stop-color="#F3D38C"/>
    </linearGradient>
    <linearGradient id="wall" x1="0" y1="0" x2="0" y2="1">
      <stop offset="0" stop-color="#2F63B3"/>
      <stop offset="1" stop-color="#1F4A8A"/>
    </linearGradient>
    <linearGradient id="glass" x1="0" y1="0" x2="0" y2="1">
      <stop offset="0" stop-color="#D8E6FF"/>
      <stop offset="1" stop-color="#B8CCF2"/>
    </linearGradient>
  </defs>

  <rect x="0" y="0" width="900" height="300" rx="26" fill="url(#bg)"/>

  <rect x="70" y="90" width="760" height="160" rx="18" fill="url(#wall)"/>
  <rect x="120" y="70" width="660" height="50" rx="16" fill="url(#roof)"/>
  <rect x="140" y="130" width="110" height="90" rx="10" fill="url(#glass)"/>
  <rect x="280" y="130" width="110" height="90" rx="10" fill="url(#glass)"/>
  <rect x="420" y="130" width="110" height="90" rx="10" fill="url(#glass)"/>
  <rect x="560" y="130" width="110" height="90" rx="10" fill="url(#glass)"/>
  <rect x="700" y="130" width="110" height="90" rx="10" fill="url(#glass)"/>

  <rect x="410" y="150" width="80" height="100" rx="12" fill="#0F1B2D" opacity="0.4"/>
  <rect x="422" y="162" width="56" height="76" rx="10" fill="#F7FAFF"/>

  <rect x="0" y="230" width="900" height="70" rx="20" fill="#E1EAFB"/>
  <path d="M0 240C80 220 160 220 240 240C320 260 400 260 480 240C560 220 640 220 720 240C800 260 880 260 900 240V300H0V240Z" fill="#D0DDF5"/>
</svg>
